<svg width="146" height="32" viewBox="0 0 146 32" fill="none" xmlns="http://www.w3.org/2000/svg">
<path d="M140.532 23.101C139.286 23.101 138.197 22.8565 137.266 22.3673C136.351 21.8782 135.641 21.1761 135.136 20.2609C134.631 19.3458 134.379 18.2413 134.379 16.9475C134.379 15.6537 134.631 14.5492 135.136 13.634C135.641 12.7189 136.343 12.0168 137.243 11.5276C138.158 11.0385 139.199 10.7939 140.367 10.7939C141.566 10.7939 142.584 11.0385 143.42 11.5276C144.256 12.001 144.895 12.6558 145.337 13.492C145.779 14.3125 146 15.2513 146 16.3085C146 16.624 145.992 16.9238 145.976 17.2078C145.96 17.4918 145.937 17.7443 145.905 17.9652H136.462V15.7168H144.485L142.923 16.2848C142.923 15.2908 142.694 14.5255 142.237 13.9891C141.795 13.4526 141.164 13.1844 140.343 13.1844C139.744 13.1844 139.223 13.3264 138.781 13.6104C138.355 13.8944 138.032 14.3204 137.811 14.8884C137.59 15.4407 137.479 16.1428 137.479 16.9948C137.479 17.8311 137.598 18.5253 137.834 19.0776C138.087 19.614 138.434 20.0164 138.876 20.2846C139.333 20.5528 139.878 20.6869 140.509 20.6869C141.203 20.6869 141.763 20.5528 142.189 20.2846C142.615 20.0164 142.947 19.6456 143.183 19.1722L145.763 20.1663C145.511 20.7816 145.124 21.3102 144.603 21.752C144.098 22.1938 143.491 22.533 142.781 22.7697C142.087 22.9906 141.337 23.101 140.532 23.101Z" fill="#050D15"/>
<path d="M127.249 23.101C126.049 23.101 124.953 22.888 123.959 22.462C122.981 22.036 122.184 21.4364 121.568 20.6633L123.438 18.7699C123.817 19.3379 124.322 19.8034 124.953 20.1663C125.584 20.5292 126.333 20.7106 127.201 20.7106C127.817 20.7106 128.306 20.6238 128.669 20.4503C129.047 20.2609 129.237 19.969 129.237 19.5746C129.237 19.3221 129.15 19.1091 128.976 18.9356C128.803 18.7462 128.456 18.5963 127.935 18.4859L125.852 18.0599C124.479 17.7758 123.501 17.3498 122.917 16.7818C122.349 16.198 122.065 15.4485 122.065 14.5334C122.065 13.8865 122.255 13.279 122.633 12.711C123.028 12.143 123.612 11.6854 124.385 11.3383C125.158 10.9754 126.12 10.7939 127.272 10.7939C128.456 10.7939 129.481 10.9833 130.349 11.362C131.233 11.7249 131.927 12.2692 132.432 12.995L130.491 14.8884C130.144 14.3362 129.686 13.9181 129.118 13.634C128.566 13.3343 127.982 13.1844 127.367 13.1844C126.925 13.1844 126.546 13.2317 126.231 13.3264C125.915 13.421 125.679 13.5552 125.521 13.7287C125.363 13.8865 125.284 14.0916 125.284 14.3441C125.284 14.5965 125.395 14.8174 125.615 15.0068C125.836 15.1803 126.239 15.3302 126.823 15.4564L129.237 15.9535C130.404 16.1901 131.24 16.5925 131.745 17.1605C132.25 17.7127 132.503 18.3833 132.503 19.1722C132.503 19.9296 132.298 20.6081 131.887 21.2076C131.493 21.7914 130.901 22.2569 130.112 22.604C129.339 22.9354 128.385 23.101 127.249 23.101Z" fill="#050D15"/>
<path d="M118.152 5.84717V19.2193C118.152 19.7715 118.246 20.1581 118.436 20.379C118.625 20.5999 118.941 20.7103 119.382 20.7103C119.651 20.7103 119.871 20.6946 120.045 20.663C120.219 20.6157 120.439 20.5526 120.708 20.4737L120.424 22.6037C120.155 22.7615 119.816 22.8799 119.406 22.9587C119.012 23.0534 118.617 23.1007 118.223 23.1007C117.071 23.1007 116.227 22.8246 115.69 22.2724C115.17 21.7044 114.909 20.805 114.909 19.5743V5.84717H118.152Z" fill="#050D15"/>
<path d="M104.444 23.1007C103.655 23.1007 102.945 22.9587 102.314 22.6747C101.683 22.3907 101.178 21.941 100.799 21.3256C100.436 20.6945 100.255 19.8819 100.255 18.8879V11.0303H103.497V18.1068C103.497 19.022 103.687 19.661 104.065 20.0239C104.444 20.371 104.988 20.5446 105.698 20.5446C106.03 20.5446 106.353 20.4894 106.669 20.3789C106.984 20.2527 107.26 20.0634 107.497 19.8109C107.75 19.5584 107.947 19.235 108.089 18.8405C108.231 18.4303 108.302 17.9491 108.302 17.3968V11.0303H111.544V22.864H108.657L108.538 20.8049C108.144 21.5938 107.6 22.1776 106.905 22.5563C106.227 22.9192 105.406 23.1007 104.444 23.1007Z" fill="#050D15"/>
<path d="M91.9133 7.24365C93.1125 7.24365 94.138 7.44877 94.9901 7.85901C95.8421 8.25346 96.4969 8.82937 96.9545 9.58673C97.4278 10.3283 97.6645 11.2277 97.6645 12.2848C97.6645 13.342 97.4278 14.2492 96.9545 15.0066C96.4969 15.7482 95.8421 16.3241 94.9901 16.7343C94.138 17.1288 93.1125 17.326 91.9133 17.326H88.6235V22.8642H85.3574V7.24365H91.9133ZM91.4163 14.7462C92.3945 14.7462 93.1282 14.5411 93.6174 14.1309C94.1065 13.7049 94.3511 13.0895 94.3511 12.2848C94.3511 11.4643 94.1065 10.849 93.6174 10.4388C93.1282 10.0285 92.3945 9.82341 91.4163 9.82341H88.6235V14.7462H91.4163Z" fill="#050D15"/>
<path d="M76.4738 7.24365L70.7936 22.8642H66.9832L61.2793 7.24365H64.7347L68.0245 17.184L68.9239 20.2608L69.7996 17.2077L73.113 7.24365H76.4738Z" fill="#050D15"/>
<path d="M48.0068 22.8642V7.24365H59.7222V9.87074H51.2729V13.7522H57.9235V16.261H51.2729V20.2371H60.0536V22.8642H48.0068Z" fill="#050D15"/>
<path d="M15.5254 26.131L17.6491 17.8379H11.9872C11.9522 17.8378 11.9179 17.8283 11.8878 17.8104C11.8578 17.7926 11.833 17.767 11.8162 17.7364C11.7994 17.7057 11.791 17.6712 11.7921 17.6362C11.7931 17.6013 11.8035 17.5673 11.8221 17.5377L19.5987 5.28361C19.7174 5.09548 20.0088 5.22176 19.9533 5.43695L17.8283 13.73H23.4902C23.5252 13.7302 23.5595 13.7397 23.5896 13.7575C23.6197 13.7754 23.6444 13.801 23.6612 13.8316C23.6781 13.8622 23.6864 13.8968 23.6854 13.9317C23.6843 13.9667 23.6739 14.0007 23.6553 14.0303L15.88 26.2844C15.7601 26.4725 15.47 26.3462 15.5254 26.131Z" fill="#44A3FF"/>
<path fill-rule="evenodd" clip-rule="evenodd" d="M17.6491 17.8383H11.9872C11.9523 17.8381 11.918 17.8286 11.8879 17.8108C11.8578 17.7929 11.8331 17.7673 11.8163 17.7367C11.7994 17.7061 11.7911 17.6715 11.7921 17.6366C11.7932 17.6016 11.8035 17.5676 11.8222 17.538L19.5988 5.28395C19.7174 5.09582 20.0088 5.2221 19.9534 5.43729L17.8284 13.7304H23.4903C23.5253 13.7305 23.5596 13.74 23.5896 13.7579C23.6197 13.7757 23.6444 13.8013 23.6613 13.8319C23.6781 13.8626 23.6864 13.8971 23.6854 13.9321C23.6844 13.967 23.674 14.001 23.6553 14.0306L15.88 26.2847C15.7601 26.4728 15.47 26.3465 15.5254 26.1314L17.6491 17.8383ZM15.0469 26.0082C14.8506 26.7704 15.8759 27.2105 16.2968 26.5503L24.0726 14.2954L24.0734 14.2941C24.1391 14.1899 24.1757 14.07 24.1794 13.9468C24.183 13.8237 24.1537 13.7018 24.0943 13.5939C24.035 13.4859 23.9479 13.3959 23.842 13.333C23.7361 13.2701 23.6154 13.2367 23.4923 13.2362H18.4652L20.4319 5.56059C20.4319 5.56062 20.4319 5.56056 20.4319 5.56059C20.6267 4.80429 19.6034 4.35169 19.1812 5.01961C19.1811 5.01986 19.1809 5.02011 19.1808 5.02036L11.4049 17.2732L11.4041 17.2746C11.3384 17.3788 11.3018 17.4987 11.2982 17.6218C11.2945 17.745 11.3238 17.8668 11.3832 17.9748C11.4425 18.0827 11.5297 18.1728 11.6355 18.2357C11.7414 18.2985 11.8621 18.332 11.9852 18.3325H17.0125L15.0469 26.0082C15.0469 26.0081 15.0468 26.0082 15.0469 26.0082ZM16.0042 26.254C16.0041 26.2543 16.0043 26.2536 16.0042 26.254V26.254Z" fill="#44A3FF"/>
<path d="M17.7518 0.000135422C11.1967 0.000135422 5.42153 3.94837 3.03821 10.0583C2.81227 10.6393 3.09857 11.2909 3.67832 11.5164C4.25766 11.7424 4.91087 11.4561 5.13642 10.8763C7.17943 5.63717 12.1315 2.25201 17.7518 2.25201C24.1997 2.25201 29.7343 6.84591 31.0078 13.0766C30.023 13.5912 29.342 14.6113 29.342 15.7974C29.342 17.4966 30.7239 18.8784 32.423 18.8784C34.1221 18.8784 35.504 17.4966 35.504 15.7974C35.504 14.3874 34.5466 13.2084 33.2521 12.8439C31.8516 5.46603 25.3457 0.000135422 17.7518 0.000135422ZM33.2513 15.7974C33.2513 16.2545 32.8796 16.6261 32.4226 16.6261C31.9656 16.6261 31.5939 16.2545 31.5939 15.7974C31.5939 15.3404 31.9656 14.9683 32.4226 14.9683C32.8796 14.9683 33.2513 15.3404 33.2513 15.7974Z" fill="#050D15"/>
<path d="M30.368 20.7177C28.3246 25.9569 23.3725 29.3421 17.7525 29.3421C11.305 29.3421 5.76967 24.7482 4.49621 18.5179C5.48138 18.0033 6.16239 16.9835 6.16239 15.7974C6.16239 14.0983 4.78013 12.716 3.08099 12.716C1.38186 12.716 0 14.0983 0 15.7974C0 17.2075 0.957377 18.386 2.25228 18.751C3.6524 26.1288 10.1583 31.5947 17.7525 31.5947C24.3072 31.5947 30.0829 27.6465 32.4662 21.5365C32.5186 21.4023 32.5436 21.2637 32.5436 21.1279C32.5436 20.6776 32.2712 20.252 31.8261 20.0784C31.2471 19.8513 30.5943 20.138 30.368 20.7177ZM2.25267 15.797C2.25267 15.34 2.62434 14.9679 3.08139 14.9679C3.53844 14.9679 3.91051 15.34 3.91051 15.797C3.91051 16.2541 3.53844 16.6258 3.08139 16.6258C2.62434 16.6258 2.25267 16.2541 2.25267 15.797Z" fill="#050D15"/>
</svg>
